<svg xmlns="http://www.w3.org/2000/svg" viewBox="0 0 100 100" width="100" height="100">
  <!-- Subtle Outer Hairline Rim -->
  <circle cx="50" cy="50" r="49" fill="#1C1917"/>
  <!-- Gold Ring -->
  <circle cx="50" cy="50" r="48" fill="#D4AF37"/>
  <!-- Inner Hairline Border -->
  <circle cx="50" cy="50" r="39.5" fill="#1C1917"/>
  <!-- Obsidian Center Disc -->
  <circle cx="50" cy="50" r="38.5" fill="#131110"/>
  <!-- Pure White Calendar Matrix -->
  <path d="M68 33h-4v-4c0-1.1-.9-2-2-2s-2 .9-2 2v4H40v-4c0-1.1-.9-2-2-2s-2 .9-2 2v4h-4c-3.3 0-6 2.7-6 6v28c0 3.3 2.7 6 6 6h36c3.3 0 6-2.7 6-6V39c0-3.3-2.7-6-6-6zm2 34c0 1.1-.9 2-2 2H32c-1.1 0-2-.9-2-2V45h40v22zm0-26H30v-2c0-1.1.9-2 2-2h36c1.1 0 2 .9 2 2v2z" fill="#FFFFFF"/>
  <circle cx="40" cy="51" r="2.5" fill="#FFFFFF"/>
  <circle cx="50" cy="51" r="2.5" fill="#FFFFFF"/>
  <circle cx="60" cy="51" r="2.5" fill="#FFFFFF"/>
  <circle cx="40" cy="59" r="2.5" fill="#FFFFFF"/>
  <circle cx="50" cy="59" r="2.5" fill="#FFFFFF"/>
  <circle cx="60" cy="59" r="2.5" fill="#FFFFFF"/>
</svg>
